<svg width="65px" height="67px" viewBox="0 0 65 67" version="1.1" xmlns="http://www.w3.org/2000/svg" xmlns:xlink="http://www.w3.org/1999/xlink">
    <title>cherry-logo-CtmH594q</title>
    <g stroke="none" stroke-width="1" fill="none" fill-rule="evenodd">
        <g id="cherry-logo-CtmH594q" fill-rule="nonzero">
            <g>
                <g transform="translate(0, 17.1058)" fill="#EA5E5D">
                    <path d="M16.72,34.11 C12.27,34.11 8.08,32.33 4.91,29.1 C1.74,25.87 -1.77635684e-15,21.59 -1.77635684e-15,17.06 C-1.77635684e-15,12.53 1.74,8.25 4.91,5.02 C8.08,1.79 12.27,0.01 16.72,0.01 C21.17,0.01 25.43,1.83 28.54,5 C30.86,7.36 30.86,11.2 28.54,13.56 C26.22,15.92 22.46,15.92 20.14,13.56 C19.24,12.64 17.99,12.11 16.71,12.11 C14.08,12.11 11.86,14.37 11.86,17.05 C11.86,19.73 14.08,21.99 16.71,21.99 C17.99,21.99 19.23,21.46 20.14,20.54 C22.46,18.18 26.22,18.18 28.54,20.54 C30.86,22.9 30.86,26.74 28.54,29.1 C25.43,32.27 21.12,34.09 16.72,34.09 L16.72,34.11 Z"></path>
                    <path d="M32.05,49.63 C27.6,49.63 23.41,47.85 20.24,44.62 C17.07,41.39 15.33,37.11 15.33,32.58 C15.33,28.05 17.12,23.7 20.23,20.52 C22.55,18.16 26.31,18.16 28.63,20.52 C30.95,22.88 30.95,26.72 28.63,29.08 C27.73,30 27.21,31.27 27.21,32.57 C27.21,35.25 29.43,37.51 32.06,37.51 C34.69,37.51 36.91,35.25 36.91,32.57 C36.91,31.62 36.68,30.26 35.59,29.14 C32.46,25.95 30.67,21.54 30.67,17.05 C30.67,12.56 32.41,8.24 35.58,5.01 C38.75,1.78 42.94,0 47.39,0 C51.84,0 56.03,1.78 59.2,5.01 C62.37,8.24 64.11,12.52 64.11,17.05 C64.11,21.58 62.32,25.93 59.21,29.11 C56.89,31.47 53.13,31.47 50.81,29.11 C48.49,26.75 48.49,22.91 50.81,20.55 C51.71,19.63 52.23,18.36 52.23,17.06 C52.23,14.38 50.01,12.12 47.38,12.12 C44.75,12.12 42.53,14.38 42.53,17.06 C42.53,18.37 43.06,19.66 43.98,20.59 C47.08,23.75 48.78,28.01 48.78,32.58 C48.78,37.15 47.04,41.39 43.87,44.62 C40.7,47.85 36.51,49.63 32.06,49.63 L32.05,49.63 Z"></path>
                </g>
                <path d="M32.05,19.0957668 L22.33,9.97576683 C20.83,8.57576683 20.76,6.22576683 22.16,4.72576683 C23.56,3.23576683 25.91,3.15576683 27.41,4.55576683 L31.3,8.20576683 L36.83,1.37576683 C38.12,-0.214233166 40.46,-0.464233166 42.05,0.825766834 C43.64,2.11576683 43.89,4.45576683 42.6,6.04576683 L32.04,19.0957668 L32.05,19.0957668 Z" id="路径" fill="#23AF69"></path>
            </g>
        </g>
    </g>
</svg>
