<svg xmlns="http://www.w3.org/2000/svg" width="180" height="180" fill="none" viewBox="0 0 180 180"><defs><clipPath id="a"><rect width="180" height="180" rx="40"/></clipPath><clipPath id="b"><rect width="144" height="144" x="18" y="18" rx="0"/></clipPath></defs><g clip-path="url(#a)"><rect width="180" height="180" fill="#111113" rx="40"/><g clip-path="url(#b)"><path fill="#2adb5c" d="M147.6 101.41V81.42c0-11.356-4.942-20.47-13.544-25.007l-44.43-23.428-.223.426-.223.425c8.278 4.365 13.028 13.17 13.028 24.157v19.99c0 .602-.016 1.235-.046 1.868q-.009.181-.025.37l-.02.299c-.026.4-.051.805-.092 1.205-.015.162-.035.329-.055.49l-.046.38c-.04.335-.076.664-.127.998q-.038.278-.086.557l-.045.289c-.056.339-.112.678-.177 1.017a50 50 0 0 1-.31 1.509l-.035.147q-.167.728-.364 1.448l-.117.425q-.203.729-.43 1.459l-.137.42a46 46 0 0 1-.547 1.59c-.05.141-.106.278-.162.42l-.086.228c-.157.405-.314.815-.48 1.22-.097.238-.203.476-.305.714l-.035.086q-.197.465-.41.922c-.122.273-.253.541-.38.81-.147.304-.288.602-.44.9q-.212.418-.43.826c-.143.269-.29.542-.436.81q-.23.41-.466.82c-.152.264-.304.532-.466.79q-.243.41-.501.81c-.162.259-.32.512-.486.765-.172.269-.35.527-.552.83q-.243.36-.486.71a73 73 0 0 1-1.114 1.524c-.187.248-.375.486-.567.729-.198.248-.395.5-.593.744q-.26.318-.526.628l-.036.04q-.348.417-.714.826-.288.325-.577.643a54 54 0 0 1-.734.79q-.282.294-.572.587c-.33.334-.663.658-1.003.982l-.146.142-.36.344q-.637.591-1.296 1.16l-.122.106-.141.127-.208.172c-.36.304-.724.597-1.089.89-.111.092-.227.178-.344.27l-.086.065c-.309.238-.618.47-.957.719-.142.101-.278.208-.42.309q-.539.385-1.084.75l-.283.197q-.714.471-1.443.911l-.31.182a54 54 0 0 1-1.159.669q-.174.097-.35.187l-.181.096c-.324.172-.643.34-.967.507l-.532.258-.06.03c-.315.152-.624.294-.943.436q-.302.137-.612.268-.482.205-.962.395l-.172.066-.426.167c-.35.132-.704.253-1.058.375l-.192.065-.32.112a41 41 0 0 1-1.59.48l-3.103.851c-.46.127-.922.244-1.377.35a5 5 0 0 1-.253.05l-.345.071c-.258.056-.511.112-.77.157-.106.02-.217.036-.323.056l-.416.07c-.202.036-.405.072-.607.097q-.175.024-.35.04l-.42.051q-.28.037-.562.066-.115.006-.223.02l-.172.016c-.293.025-.587.05-.88.065-.112.005-.218.01-.33.01h-.162q-.386.025-.764.026H57.6c-.238 0-.481-.005-.719-.015-.132 0-.263-.01-.395-.02h-.132c-.248-.02-.49-.036-.739-.056l-.324-.03c-.309-.031-.613-.061-.921-.102l-.198-.025q-.54-.076-1.078-.172l-.269-.051q-.333-.067-.668-.142-.523-.114-1.038-.258l-.147-.04c-.066-.016-.126-.036-.192-.051a25 25 0 0 1-1.322-.42l-.314-.117a21 21 0 0 1-.926-.36l-.35-.151-.076-.036a23 23 0 0 1-.795-.364l-.121-.061q-.046-.025-.071-.036l-3.306-1.731 2.395 2.395h.08L90.3 145.582c.152.082.304.157.46.238.051.026.102.046.152.071l.097.046c.273.132.546.258.83.38l.081.035c.122.051.238.106.36.157.318.132.637.253.962.375l.106.04q.084.031.152.061l.066.02c.445.157.91.304 1.377.436q.106.031.212.055l.137.036c.355.096.72.187 1.084.268l.086.02.131.031q.161.036.33.066l.43.081q.554.099 1.114.182l.207.025q.472.061.952.107l.623.055.294.015.243.011c.162.01.319.02.486.025.228.01.46.01.689.015h.592c.248 0 .496-.01.795-.025h.162c.111-.01.228-.01.344-.02q.45-.025.907-.066l.162-.015c.08-.006.162-.01.288-.026l.532-.06.4-.05q.197-.023.395-.052c.212-.03.42-.066.633-.1l.405-.067c.116-.02.233-.035.349-.06q.395-.077.79-.163l.324-.065.289-.06q.704-.163 1.417-.36l3.104-.85a34 34 0 0 0 1.955-.604l.202-.07q.549-.19 1.089-.386c.157-.055.309-.12.46-.182l.147-.06c.33-.132.664-.264.988-.406l.627-.273q.486-.22.963-.446l.106-.05.501-.243q.5-.251.993-.517l.182-.096c.121-.066.243-.127.36-.192.4-.218.79-.45 1.184-.684l.132-.076q.089-.052.187-.106.706-.426 1.398-.88l.319-.219 9.757 4.446c5.7 2.597 12.182-1.57 12.182-7.838v-36.121z"/><path fill="#fff" d="M89.65 32.995q-.227-.12-.455-.232c-.081-.041-.167-.076-.248-.117a30 30 0 0 0-.82-.38l-.44-.192a20 20 0 0 0-.958-.37c-.086-.03-.172-.07-.263-.1-.02-.006-.04-.016-.06-.021q-.677-.237-1.368-.436c-.116-.035-.233-.06-.35-.09a20 20 0 0 0-1.073-.264c-.076-.015-.147-.04-.217-.056-.157-.035-.314-.06-.471-.09-.092-.021-.188-.036-.279-.057a25 25 0 0 0-1.109-.177c-.07-.01-.141-.015-.212-.025-.314-.04-.623-.076-.942-.106l-.334-.03q-.145-.017-.289-.026c-.157-.01-.314-.015-.47-.025a20 20 0 0 0-.548-.026c-.243-.01-.49-.01-.739-.015-.177 0-.36-.005-.537 0-.258 0-.521.015-.784.02-.168.005-.34.01-.507.02a31 31 0 0 0-.901.066l-.41.03h-.04c-.244.026-.492.061-.74.092-.197.025-.39.045-.587.07-.279.041-.557.092-.836.137-.182.03-.364.056-.547.092q-.471.09-.951.197-.226.043-.451.096-.706.161-1.413.36l-3.103.85q-.82.227-1.63.492c-.178.055-.35.121-.527.182q-.549.188-1.09.385-.301.115-.612.238c-.329.131-.658.263-.987.405l-.628.273a56 56 0 0 0-.962.446q-.303.143-.608.293-.5.251-.992.517-.274.144-.542.288c-.4.218-.79.451-1.185.684q-.159.089-.319.187c-.47.284-.936.583-1.402.886-.025.016-.05.036-.076.051-.101.066-.197.137-.294.203a43 43 0 0 0-1.564 1.098q-.48.355-.952.72c-.147.11-.294.227-.436.338q-.563.45-1.119.912-.105.089-.212.172c-.015.01-.03.025-.046.035-.076.066-.147.137-.223.203-.445.385-.89.78-1.321 1.185-.177.162-.344.329-.522.496q-.515.494-1.022 1.003-.138.133-.274.268c-.106.106-.202.223-.309.329a57 57 0 0 0-.754.81l-.592.653c-.249.279-.487.562-.73.84-.121.143-.243.28-.36.421-.07.086-.14.177-.212.263q-.311.38-.607.765c-.193.248-.39.496-.583.744q-.295.389-.582.785c-.121.167-.248.33-.37.501-.065.091-.121.183-.187.274-.177.253-.35.511-.527.764a41 41 0 0 0-1.038 1.595q-.167.257-.329.522c-.06.101-.116.207-.182.309q-.243.4-.47.81a45 45 0 0 0-.477.84q-.226.413-.445.826c-.091.172-.193.344-.279.521-.055.106-.101.213-.157.319-.157.309-.304.618-.455.927q-.2.408-.39.825-.212.471-.415.942c-.081.187-.173.374-.249.567-.035.08-.065.167-.1.253-.173.41-.33.825-.492 1.246-.086.222-.172.44-.253.663a43 43 0 0 0-.557 1.625c-.03.091-.066.182-.096.279 0 .01-.005.025-.01.035-.016.04-.026.086-.04.127-.158.496-.3.992-.441 1.488-.041.147-.081.289-.117.436-.132.49-.258.987-.37 1.483-.01.05-.025.102-.035.152a38 38 0 0 0-.278 1.312c-.016.08-.026.157-.041.238-.07.364-.127.729-.187 1.098-.046.269-.091.542-.132.81-.056.385-.096.77-.142 1.155-.03.253-.066.506-.086.76q-.059.639-.096 1.285c-.015.213-.035.42-.046.633a60 60 0 0 0-.035 1.904v19.99c0 7.286 2.066 13.509 5.61 18.197a23.4 23.4 0 0 0 2.922 3.225 23.4 23.4 0 0 0 4.921 3.47l44.43 23.422c-8.161-4.304-13.447-13.231-13.453-24.891v-19.99c0-.638.016-1.281.046-1.92.01-.212.03-.42.046-.632.03-.43.055-.856.096-1.286.025-.253.06-.506.086-.76.045-.384.086-.77.142-1.154.04-.268.086-.542.131-.81.061-.365.122-.734.188-1.099q.144-.776.319-1.544c.01-.05.025-.101.035-.152q.173-.745.37-1.484c.04-.141.076-.288.116-.43.137-.496.284-.997.44-1.489.016-.04.026-.086.041-.126.03-.101.071-.208.106-.31.178-.54.36-1.088.557-1.624.081-.223.168-.44.254-.664q.234-.623.49-1.245c.112-.274.234-.547.35-.815q.204-.471.415-.942.192-.417.39-.825.22-.464.456-.927c.142-.284.288-.562.435-.846a42 42 0 0 1 .922-1.665l.47-.81c.168-.28.34-.552.512-.826.162-.263.33-.521.496-.785q.268-.408.542-.81a43 43 0 0 1 1.084-1.534q.287-.396.582-.785c.192-.253.385-.496.582-.744.203-.253.405-.512.608-.765q.282-.341.572-.683c.243-.284.48-.567.729-.846q.29-.327.587-.653.374-.409.755-.81.287-.303.582-.598c.334-.339.679-.673 1.023-1.002q.257-.252.521-.496.654-.607 1.322-1.185c.091-.076.177-.162.268-.238q.107-.09.213-.172c.37-.31.74-.613 1.119-.912q.22-.172.44-.339c.314-.243.633-.486.952-.719l.456-.334c.365-.263.74-.522 1.109-.77.096-.065.192-.136.294-.197.486-.324.977-.633 1.473-.937q.16-.09.314-.182c.395-.233.79-.466 1.19-.684.177-.101.36-.192.542-.288a37 37 0 0 1 1.6-.81q.48-.23.967-.451l.622-.273c.33-.142.659-.274.993-.406.202-.08.405-.162.607-.237q.54-.205 1.089-.385l.527-.183a38 38 0 0 1 1.63-.49l3.104-.851a32 32 0 0 1 1.412-.355q.243-.05.476-.101c.31-.066.618-.137.922-.192.187-.036.375-.061.562-.092.273-.045.547-.096.82-.136.198-.03.395-.046.593-.071.258-.03.516-.066.774-.091.137-.016.269-.02.405-.03q.457-.041.907-.067c.167-.01.334-.01.5-.02q.397-.016.79-.025h.538c.248 0 .496 0 .739.015q.273.009.547.025c.253.016.506.03.754.051l.334.03q.471.045.942.107c.07.01.142.015.213.025q.561.076 1.109.177a6 6 0 0 1 .278.056c.233.046.46.096.694.147a37 37 0 0 1 1.422.354q.692.197 1.368.43.163.062.329.122.48.174.952.37.22.092.44.192.418.183.82.38c.238.116.471.228.704.35z" style="mix-blend-mode:passthrough"/></g></g></svg>